<svg width="100" height="142" viewBox="0 0 100 142" fill="none" xmlns="http://www.w3.org/2000/svg">
<path fill-rule="evenodd" clip-rule="evenodd" d="M85.9414 135.995C88.8032 137.083 90.4917 137.626 91.0069 137.626C92.4378 137.626 93.7829 136.596 95.0421 134.536C96.3013 132.475 97.3316 130.128 98.1329 127.495C98.9342 124.92 99.3348 123.117 99.3348 122.087C99.3348 120.999 98.648 120.198 97.2743 119.683L77.635 112.633C67.2317 114.436 51.681 116.113 34.858 115.696L70.4015 129.814C77.8996 132.847 83.0795 134.908 85.9414 135.995ZM32.1218 114.61L27.8172 112.9C18.7737 109.351 11.8767 103.256 7.12601 94.6128C2.37534 85.97 0 75.0663 0 61.9018C0 50.2255 1.88882 40.3235 5.66646 32.1958C9.50134 24.0109 15.0533 17.8293 22.3224 13.651C29.6488 9.41548 38.5205 7.29771 48.9376 7.29771C59.412 7.29771 68.2838 9.41548 75.5529 13.651C82.8792 17.8293 88.4312 24.0109 92.2088 32.1958C95.9865 40.3235 97.8753 50.2255 97.8753 61.9018C97.8753 73.9216 95.8148 84.0526 91.6937 92.2947C87.6299 100.537 81.6772 106.633 73.8358 110.582V111.269L75.7109 111.942C64.8092 113.716 48.9883 115.258 32.1218 114.61ZM67.4824 88.1736C63.3041 94.1835 57.1225 97.1885 48.9376 97.1885C40.81 97.1885 34.6284 94.1835 30.3929 88.1736C26.2146 82.1637 24.1254 73.4065 24.1254 61.9018C24.1254 50.6834 26.2146 42.1551 30.3929 36.3169C34.6284 30.4215 40.81 27.4738 48.9376 27.4738C57.1225 27.4738 63.3041 30.3929 67.4824 36.231C71.6607 42.0692 73.7499 50.6261 73.7499 61.9018C73.7499 73.4065 71.6607 82.1637 67.4824 88.1736Z" fill="#46D078"/>
<circle cx="75.0945" cy="12.8211" r="12.8211" fill="#A3C6B0"/>
<circle cx="21.9783" cy="12.8211" r="12.8211" fill="#A3C6B0"/>
<path fill-rule="evenodd" clip-rule="evenodd" d="M91.6723 141.932C91.1572 141.932 89.4687 141.388 86.6069 140.301C83.745 139.213 78.5651 137.152 71.067 134.119L35.5234 120.002C52.3465 120.418 67.8972 118.741 78.3005 116.938L97.9398 123.988C99.3135 124.503 100 125.304 100 126.392C100 127.422 99.5997 129.225 98.7984 131.801C97.997 134.434 96.9668 136.78 95.7076 138.841C94.4483 140.902 93.1033 141.932 91.6723 141.932Z" fill="#A3C6B0"/>
</svg>
